<svg xmlns="http://www.w3.org/2000/svg" aria-hidden="true" style="position:absolute;width:0;height:0;overflow:hidden"><defs><symbol id="icon-facebook" viewBox="0 0 32 32"><path d="M21.329 5.313h2.921V.225C23.746.156 22.013 0 19.994 0c-4.212 0-7.097 2.649-7.097 7.519V12H8.249v5.688h4.648V32h5.699V17.689h4.46l.708-5.688h-5.169V8.082c.001-1.644.444-2.769 2.735-2.769z"/></symbol><symbol id="icon-instagram" viewBox="0 0 32 32"><path d="M31.969 9.408c-.075-1.7-.35-2.869-.744-3.882a7.803 7.803 0 0 0-1.85-2.838A7.867 7.867 0 0 0 26.543.844C25.524.45 24.361.175 22.661.1 20.948.019 20.404 0 16.06 0s-4.888.019-6.595.094c-1.7.075-2.869.35-3.882.744a7.803 7.803 0 0 0-2.838 1.85A7.867 7.867 0 0 0 .901 5.52C.507 6.539.232 7.702.157 9.402c-.081 1.713-.1 2.257-.1 6.601s.019 4.888.094 6.595c.075 1.7.35 2.869.744 3.882a7.895 7.895 0 0 0 1.85 2.838 7.867 7.867 0 0 0 2.832 1.844c1.019.394 2.182.669 3.882.744 1.706.075 2.25.094 6.595.094s4.888-.019 6.595-.094c1.7-.075 2.869-.35 3.882-.744a8.181 8.181 0 0 0 4.682-4.682c.394-1.019.669-2.182.744-3.882.075-1.707.094-2.25.094-6.595s-.006-4.888-.081-6.595zm-2.882 13.065c-.069 1.563-.331 2.407-.55 2.969a5.31 5.31 0 0 1-3.038 3.038c-.563.219-1.413.481-2.969.55-1.688.075-2.194.094-6.464.094s-4.782-.019-6.464-.094c-1.563-.069-2.407-.331-2.969-.55a4.926 4.926 0 0 1-1.838-1.194 4.974 4.974 0 0 1-1.194-1.838c-.219-.563-.481-1.413-.55-2.969-.075-1.688-.094-2.194-.094-6.464s.019-4.782.094-6.464c.069-1.563.331-2.407.55-2.969a4.868 4.868 0 0 1 1.2-1.838A4.974 4.974 0 0 1 6.639 3.55c.563-.219 1.413-.481 2.969-.55 1.688-.075 2.194-.094 6.464-.094 4.276 0 4.782.019 6.464.094 1.563.069 2.407.331 2.969.55a4.914 4.914 0 0 1 1.838 1.194 4.974 4.974 0 0 1 1.194 1.838c.219.563.481 1.413.55 2.969.075 1.688.094 2.194.094 6.464s-.019 4.77-.094 6.458z"/><path d="M16.059 7.783c-4.538 0-8.22 3.682-8.22 8.22s3.682 8.22 8.22 8.22 8.22-3.682 8.22-8.22-3.682-8.22-8.22-8.22zm0 13.552a5.333 5.333 0 0 1 0-10.664 5.333 5.333 0 0 1 0 10.664zM26.524 7.458a1.919 1.919 0 1 1-3.838 0 1.919 1.919 0 0 1 3.838 0z"/></symbol><symbol id="icon-linkedin" viewBox="0 0 32 32"><path d="M31.992 32v-.001H32V20.263c0-5.741-1.236-10.164-7.948-10.164-3.227 0-5.392 1.771-6.276 3.449h-.093v-2.913h-6.364v21.364h6.627V21.42c0-2.785.528-5.479 3.977-5.479 3.399 0 3.449 3.179 3.449 5.657v10.401h6.62zM.528 10.636h6.635V32H.528V10.636zM3.843 0C1.722 0 0 1.721 0 3.843s1.721 3.879 3.843 3.879c2.121 0 3.843-1.757 3.843-3.879A3.846 3.846 0 0 0 3.843 0z"/></symbol><symbol id="icon-strategy" viewBox="0 0 30 32"><path d="m29.773 22.098-8.443-8.505.937-4.615c.242.094.499.144.758.146h.006a2.159 2.159 0 1 0-2.008-1.435l-4.96.605L7.972.161a.534.534 0 0 0-.377-.16.532.532 0 0 0-.373.155L5.709 1.66a.534.534 0 0 0 0 .754l.814.826a14.943 14.943 0 0 0 2.519 17.663.513.513 0 0 0 .146.098c-.034.18-.051.364-.052.547v6.187h-6.4a2.67 2.67 0 0 0-2.667 2.667v1.067c0 .295.239.533.533.533h24.533a.533.533 0 0 0 .533-.533v-1.067a2.67 2.67 0 0 0-2.667-2.667h-6.4v-2.742a15.09 15.09 0 0 0 3.049.32 14.854 14.854 0 0 0 7.04-1.783l.818.823a.534.534 0 0 0 .377.16.532.532 0 0 0 .373-.155l1.513-1.504a.534.534 0 0 0 0-.754zM22.28 6.233a1.067 1.067 0 1 1 .753 1.822h-.003a1.067 1.067 0 0 1-.747-1.823h-.002zm-1.256 3.505-.598 2.946-1.175-1.182 1.774-1.763zm-.605-.902-1.92 1.909-1.485-1.493 3.405-.415zM23.004 28.8a1.6 1.6 0 0 1 1.6 1.6v.533H1.137V30.4a1.6 1.6 0 0 1 1.6-1.6h20.267zm-7.467-2.133v1.067h-5.333v-1.067h5.333zM10.204 25.6v-4.053c0-1.294 1.196-2.347 2.667-2.347s2.667 1.053 2.667 2.347V25.6h-5.333zm6.4-1.696v-2.357c0-1.882-1.675-3.413-3.733-3.413A3.8 3.8 0 0 0 9.59 19.92 13.87 13.87 0 0 1 7.311 4.033l18.602 18.708a13.818 13.818 0 0 1-9.309 1.163zm11.289-.684L6.836 2.039l.755-.752 7.935 7.98c.004 0 .006.007.01.01l13.115 13.191-.757.752z"/><path d="M12.876 20.267h-.005a1.6 1.6 0 1 0-.004 3.2h.005a1.6 1.6 0 1 0 .004-3.2zm.373 1.978a.534.534 0 0 1-.752-.756.534.534 0 0 1 .373-.155.534.534 0 0 1 .374.911h.005z"/></symbol><symbol id="icon-twitter" viewBox="0 0 32 32"><path d="M32 6.078c-1.19.522-2.458.868-3.78 1.036a6.523 6.523 0 0 0 2.886-3.626 13.11 13.11 0 0 1-4.16 1.588A6.574 6.574 0 0 0 22.154 3c-3.632 0-6.556 2.948-6.556 6.562 0 .52.044 1.02.152 1.496-5.454-.266-10.28-2.88-13.522-6.862a6.605 6.605 0 0 0-.898 3.316 6.57 6.57 0 0 0 2.914 5.452 6.479 6.479 0 0 1-2.964-.808v.072c0 3.188 2.274 5.836 5.256 6.446a6.548 6.548 0 0 1-1.72.216 5.8 5.8 0 0 1-1.242-.112c.85 2.598 3.262 4.508 6.13 4.57a13.182 13.182 0 0 1-8.134 2.798c-.538 0-1.054-.024-1.57-.09A18.469 18.469 0 0 0 10.064 29c12.072 0 18.672-10 18.672-18.668 0-.29-.01-.57-.024-.848A13.087 13.087 0 0 0 32 6.078z"/></symbol><symbol id="icon-Vector-diligence" viewBox="0 0 32 32"><path d="M1.599 28.291h25.587a1.6 1.6 0 0 0 1.599-1.599V24.56a1.6 1.6 0 0 0-1.599-1.599h-.533V9.668L29.681 6.8a1.608 1.608 0 1 0-.746-.763L26.654 8.2V6.97a1.6 1.6 0 0 0-1.599-1.599H3.733A1.6 1.6 0 0 0 2.134 6.97v15.992h-.533a1.6 1.6 0 0 0-1.599 1.599v2.132a1.6 1.6 0 0 0 1.599 1.599zM30.384 4.837a.533.533 0 1 1 0 1.067.533.533 0 0 1 0-1.067zM3.198 6.969c0-.294.239-.533.533-.533h21.322c.294 0 .533.239.533.533v2.239l-1.066 1.013V8.035a.533.533 0 0 0-.533-.533H4.797a.533.533 0 0 0-.533.533v13.326c0 .294.239.533.533.533h19.19a.533.533 0 0 0 .533-.533v-9.674l1.066-1.01v12.284H3.198V6.969zm4.798 6.93a1.598 1.598 0 1 0 1.107 2.749l1.853.93a.532.532 0 0 0 .636-.123l3.939-4.431 3.872 2.901a.533.533 0 0 0 .686-.039l3.365-3.188v8.131H5.33V8.569h18.124v2.66l-3.771 3.572-3.904-2.927a.533.533 0 0 0-.718.072l-3.993 4.493-1.493-.746c.011-.064.018-.129.02-.193a1.6 1.6 0 0 0-1.599-1.599zm.533 1.599a.533.533 0 1 1-1.067 0 .533.533 0 0 1 1.067 0zm3.198 8.529h5.331v.533a.533.533 0 0 1-.533.533h-4.264a.533.533 0 0 1-.533-.533v-.533zm-10.661.533c0-.294.239-.533.533-.533h9.062v.533a1.6 1.6 0 0 0 1.599 1.599h4.264a1.6 1.6 0 0 0 1.599-1.599v-.533h9.062c.294 0 .533.239.533.533v2.132a.533.533 0 0 1-.533.533H1.598a.533.533 0 0 1-.533-.533V24.56z"/></symbol><symbol id="icon-Vector-punctuality" viewBox="0 0 31 32"><path d="M30.797 15.301C30.795 6.849 23.942-.002 15.489 0S.186 6.855.188 15.308a15.304 15.304 0 0 0 10.649 14.576.662.662 0 0 0 .529-.065.637.637 0 0 0 .283-.356l3.865-12.25a1.912 1.912 0 1 0-.84-3.635L9.568 8.471a.637.637 0 0 0-.902.902l5.103 5.109a1.876 1.876 0 0 0 .536 2.309l-3.683 11.673C3.344 25.783-.382 17.71 2.299 10.432S13.053-.572 20.331 2.109c7.278 2.681 11.004 10.754 8.323 18.032a14.042 14.042 0 0 1-7.462 7.973l-.398-1.874a.637.637 0 0 0-1.049-.344l-3.837 3.426a.637.637 0 0 0 .231 1.084l4.899 1.564a.638.638 0 0 0 .819-.74l-.391-1.839a15.255 15.255 0 0 0 9.329-14.089zm-15.305-.637a.638.638 0 1 1 0 1.277.638.638 0 0 1 0-1.277zm2.101 14.864 2.184-1.948.603 2.84-2.787-.892z"/></symbol><symbol id="icon-Vector-technologies" viewBox="0 0 32 32"><path d="M29.674 13.451a2.028 2.028 0 0 0-1.358-.805 2.029 2.029 0 0 0-1.531.402l-1.431 1.097-2.169 1.62-1.552-.618c2.767-1.242 4.701-4.009 4.701-7.223C26.334 3.555 22.765 0 18.378 0s-7.956 3.555-7.956 7.924c0 1.584.474 3.056 1.28 4.295l-3.159-.027h-.005c-.01 0-.018.005-.027.005a.598.598 0 0 0-.177.035c-.015.005-.03.009-.044.015l-.022.007-3.695 1.824-.001.001-2.164 1.041a.432.432 0 0 0-.072.04 2.034 2.034 0 0 0 .523 3.639 2.033 2.033 0 0 0 1.575-.146l1.586-.844 2.587-1.336 1.551-.009-6.219 6.189-.002.001-1.53 1.524c-.361.36-.56.837-.56 1.346s.199.987.56 1.347c.371.369.859.555 1.348.555s.976-.185 1.349-.555l1.502-1.496 1.989-1.485 1.03 1.025-2.013 2.005-.002.001-1.53 1.524c-.361.36-.56.837-.56 1.346s.199.987.56 1.347c.371.369.86.555 1.348.555s.977-.185 1.349-.555l3.979-3.962.001-.002 1.154-1.143-.004-.004c.007-.007.018-.01.025-.018l5.904-6.467 3.967.564a.606.606 0 0 0 .3-.038c.02-.007.038-.017.057-.027.022-.011.045-.017.066-.031l3.672-2.438c.013-.009.021-.024.034-.034.015-.012.033-.016.046-.029l1.453-1.361c.756-.708.86-1.869.242-2.699zM3.863 17.578a.816.816 0 0 1-.638.059.817.817 0 0 1-.243-1.44l1.501-.722.513 1.5-1.134.603zm3.997-2.089-1.769.914-.502-1.467 2.316-1.143-.045 1.696zm17.256-7.566c0 1.05-.25 2.04-.684 2.925l-4.779-2.171a2.126 2.126 0 0 0-.901-1.586l1.673-5.555c2.717.864 4.691 3.399 4.691 6.386zm-13.473 0c0-3.697 3.022-6.705 6.737-6.705.289 0 .572.024.852.06l-1.637 5.433c-.022-.001-.043-.007-.065-.007-1.18 0-2.14.957-2.14 2.133s.96 2.133 2.14 2.133c.794 0 1.479-.438 1.849-1.08l4.414 2.005a6.733 6.733 0 0 1-5.413 2.731c-3.714 0-6.736-3.008-6.736-6.705zm6.808.914c0 .504-.413.914-.921.914s-.921-.41-.921-.914.413-.914.921-.914.921.41.921.914zM4.246 26.008a.695.695 0 0 1-.976.001.678.678 0 0 1 0-.965l1.1-1.095.973.969-1.096 1.091zm3.672 4.266a.695.695 0 0 1-.977.001.678.678 0 0 1 0-.965l1.1-1.096.973.969-1.097 1.092zm3.98-3.964-.002.001-2.017 2.011-.973-.969 2.015-2.006v-.001l.002-.001c.046-.046.074-.101.102-.155.008-.016.023-.029.03-.046.019-.047.022-.098.029-.147.004-.028.016-.054.016-.083 0-.041-.015-.08-.023-.121-.007-.037-.007-.074-.021-.109a.612.612 0 0 0-.104-.157c-.012-.013-.016-.03-.029-.043h-.001l-.001-.002-1.837-1.829c-.02-.02-.044-.027-.066-.044a.588.588 0 0 0-.099-.066.59.59 0 0 0-.107-.037.587.587 0 0 0-.118-.023.57.57 0 0 0-.109.006.61.61 0 0 0-.119.023c-.038.012-.072.031-.108.051-.023.013-.048.017-.07.033l-2.027 1.513-1.03-1.025 2.742-2.727 4.984 4.901-1.06 1.05zm7.793-8.019c-.018-.002-.034.004-.052.003a.655.655 0 0 0-.233.032.646.646 0 0 0-.205.124c-.015.013-.032.019-.046.034l-5.369 5.881L8.84 19.5l3.238-3.221a.61.61 0 0 0-.434-1.042v-.001l-2.536.015.032-1.837 3.547.03a7.94 7.94 0 0 0 5.693 2.401c.5 0 .988-.052 1.462-.14.046.037.091.074.148.097l2.754 1.097.174.867.204 1.012-3.432-.488zm4.618.203-.358-1.78 1.653-1.234 1.082 1.436-2.377 1.579zm4.29-3.235-.958.897-1.064-1.413.95-.728a.837.837 0 0 1 .62-.163.816.816 0 0 1 .451 1.407z"/></symbol></defs></svg>